<svg xmlns="http://www.w3.org/2000/svg" width="900" height="530" viewBox="0 0 900 530">
<style>text{font-family:-apple-system,BlinkMacSystemFont,"Segoe UI",Arial,sans-serif;fill:#1e293b} .title{font-size:22px;font-weight:600} .sub{font-size:12px;fill:#475569} .axis{font-size:12px;fill:#475569} .note{font-size:11px;fill:#64748b} .label{font-size:11px;fill:#334155} .grid{stroke:#e2e8f0;stroke-width:1} .axisline{stroke:#94a3b8;stroke-width:1.2}</style>
<rect x="0" y="0" width="900" height="530" fill="#ffffff"/><text x="90" y="34" class="title">Five-minute validation-BPB ablation</text><text x="90" y="54" class="sub">Mean across recorded follow-up seeds; lower is better</text><line x1="90" y1="420.0" x2="860" y2="420.0" class="grid"/><text x="78" y="424.0" text-anchor="end" class="axis">1.08</text><line x1="90" y1="332.5" x2="860" y2="332.5" class="grid"/><text x="78" y="336.5" text-anchor="end" class="axis">1.12</text><line x1="90" y1="245.0" x2="860" y2="245.0" class="grid"/><text x="78" y="249.0" text-anchor="end" class="axis">1.16</text><line x1="90" y1="157.5" x2="860" y2="157.5" class="grid"/><text x="78" y="161.5" text-anchor="end" class="axis">1.20</text><line x1="90" y1="70.0" x2="860" y2="70.0" class="grid"/><text x="78" y="74.0" text-anchor="end" class="axis">1.24</text><rect x="155" y="131.5" width="120" height="288.5" fill="#94a3b8"/><text x="215.0" y="122.5" text-anchor="middle" class="label">1.2119</text><text x="215.0" y="444" text-anchor="middle" class="axis">Baseline</text><rect x="340" y="367.6" width="120" height="52.4" fill="#2563eb"/><text x="400.0" y="358.6" text-anchor="middle" class="label">1.1040</text><text x="400.0" y="444" text-anchor="middle" class="axis">Batch-only</text><rect x="525" y="373.1" width="120" height="46.9" fill="#2563eb"/><text x="585.0" y="364.1" text-anchor="middle" class="label">1.1014</text><text x="585.0" y="444" text-anchor="middle" class="axis">Full candidate
(exp. 68)</text><rect x="710" y="116.4" width="120" height="303.6" fill="#dc2626"/><text x="770.0" y="107.4" text-anchor="middle" class="label">1.2188</text><text x="770.0" y="444" text-anchor="middle" class="axis">Non-batch
bundle</text><line x1="90" y1="420.0" x2="860" y2="420.0" class="axisline"/><line x1="90" y1="70" x2="90" y2="420.0" class="axisline"/><text x="90" y="498" class="note">The batch-only condition explains nearly all of the observed validation-BPB reduction. The non-batch bundle does not establish an independent gain.</text></svg>